<svg width="16" height="14" viewBox="0 0 16 14" fill="none" xmlns="http://www.w3.org/2000/svg">
<path fill-rule="evenodd" clip-rule="evenodd" d="M7.5208 4.00525L7.55438 4.55889L6.99479 4.49109C4.95791 4.23122 3.17843 3.34993 1.66756 1.8698L0.928908 1.13538L0.73865 1.67772C0.33575 2.88668 0.593158 4.16343 1.43253 5.02213C1.8802 5.49668 1.77948 5.56447 1.00725 5.282C0.73865 5.19161 0.503625 5.12382 0.481242 5.15772C0.4029 5.23681 0.6715 6.26499 0.884142 6.67174C1.17513 7.23668 1.76828 7.79031 2.4174 8.11798L2.96579 8.37785L2.31668 8.38915C1.68994 8.38915 1.66756 8.40044 1.73471 8.63772C1.95854 9.37213 2.84268 10.1517 3.82755 10.4907L4.52143 10.728L3.91708 11.0895C3.02175 11.6093 1.96973 11.903 0.917717 11.9256C0.414092 11.9369 0 11.9821 0 12.016C0 12.129 1.36538 12.7617 2.15999 13.0103C4.54382 13.7447 7.37531 13.4284 9.50173 12.1742C11.0126 11.2816 12.5235 9.50772 13.2286 7.79031C13.6091 6.87512 13.9896 5.20291 13.9896 4.40071C13.9896 3.88097 14.0232 3.81317 14.6499 3.19174C15.0192 2.83019 15.3662 2.43473 15.4333 2.32175C15.5452 2.10707 15.534 2.10707 14.9633 2.29915C14.012 2.63811 13.8777 2.59291 14.3477 2.08447C14.6947 1.72291 15.1088 1.06759 15.1088 0.875512C15.1088 0.841616 14.9409 0.898109 14.7506 0.999798C14.5492 1.11278 14.1015 1.28227 13.7658 1.38395L13.1614 1.57603L12.613 1.20317C12.3108 0.999798 11.8856 0.773824 11.6617 0.706031C11.0909 0.54785 10.218 0.570447 9.70318 0.751226C8.30422 1.25967 7.42008 2.57032 7.5208 4.00525Z" fill="#161A34"/>
</svg>
